M48
INCH
T01C0.0200
T02C0.0300
T03C0.0400
%
T01
X-010000Y+005000
T02
X-017000Y+002500
X-017000Y+001500
X-017000Y+000500
X-017000Y-000500
X-017000Y-001500
X-017000Y-002500
X-017000Y-003500
X-017000Y-004500
X-017000Y-005500
X-017000Y-006500
X-017000Y-007500
X-017000Y-008500
X-017000Y-009500
X-017000Y-010500
X-017000Y-011500
X-017000Y-012500
X-017000Y-013500
X-017000Y-014500
X-017000Y-015500
X-017000Y-016500
X-011000Y-016500
X-011000Y-015500
X-011000Y-014500
X-011000Y-013500
X-011000Y-012500
X-011000Y-011500
X-011000Y-010500
X-011000Y-009500
X-011000Y-008500
X-011000Y-007500
X-011000Y-006500
X-011000Y-005500
X-011000Y-004500
X-011000Y-003500
X-011000Y-002500
X-011000Y-001500
X-011000Y-000500
X-011000Y+000500
X-011000Y+001500
X-011000Y+002500
X-008500Y-013000
X-008500Y-017000
T03
X-009000Y+004500
X-008000Y+004500
X-007000Y+004500
X-006000Y+004500
X-005000Y+004500
X-004000Y+004500
X-003000Y+004500
X-003000Y+005500
X-004000Y+005500
X-005000Y+005500
X-006000Y+005500
X-007000Y+005500
X-008000Y+005500
X-009000Y+005500
M30
